<svg width="145" height="14" viewBox="0 0 145 14" fill="none" xmlns="http://www.w3.org/2000/svg">
    <path d="M6.274 8.08187C6.37194 8.26951 6.46124 8.46594 6.5419 8.67118C6.62832 8.87055 6.71186 9.07285 6.79251 9.27808C6.87317 9.06698 6.95671 8.85882 7.04313 8.65359C7.12955 8.44835 7.22173 8.25192 7.31967 8.06428L11.0184 1.01894C11.0645 0.930987 11.1106 0.860622 11.1567 0.807848C11.2085 0.755074 11.2632 0.716959 11.3209 0.693504C11.3842 0.670049 11.4534 0.655389 11.5283 0.649526C11.6032 0.643662 11.6925 0.64073 11.7962 0.64073H13.5505V13.3593H11.5023V5.14411C11.5023 4.99165 11.5052 4.82454 11.511 4.64276C11.5225 4.46098 11.5369 4.27627 11.5542 4.08863L7.77769 11.3011C7.69127 11.4653 7.57892 11.5943 7.44065 11.6881C7.30238 11.776 7.14107 11.82 6.95671 11.82H6.63696C6.4526 11.82 6.29128 11.776 6.15301 11.6881C6.01474 11.5943 5.9024 11.4653 5.81598 11.3011L1.98763 4.06225C2.01068 4.25575 2.02508 4.44632 2.03084 4.63396C2.04236 4.81574 2.04812 4.98579 2.04812 5.14411V13.3593H0V0.64073H1.7543C1.858 0.64073 1.9473 0.643662 2.0222 0.649526C2.09709 0.655389 2.16335 0.670049 2.22096 0.693504C2.28434 0.716959 2.34195 0.755074 2.3938 0.807848C2.44565 0.860622 2.49462 0.930987 2.54071 1.01894L6.274 8.08187Z" fill="black"/>
    <path d="M35.6942 13.3593H33.8967C33.695 13.3593 33.528 13.3094 33.3954 13.2097C33.2687 13.1042 33.1765 12.9752 33.1189 12.8227L32.1856 10.228H27.0091L26.0758 12.8227C26.0297 12.9576 25.9375 13.0807 25.7992 13.1922C25.6667 13.3036 25.5025 13.3593 25.3066 13.3593H23.5005L28.4091 0.64073H30.7856L35.6942 13.3593ZM27.6054 8.55683H31.5893L30.0683 4.32612C29.9992 4.13848 29.9214 3.91858 29.835 3.66644C29.7543 3.40843 29.6737 3.1299 29.593 2.83085C29.5124 3.1299 29.4317 3.40843 29.351 3.66644C29.2761 3.92445 29.2013 4.1502 29.1264 4.34371L27.6054 8.55683Z" fill="black"/>
    <path d="M46.8415 0.64073C46.9452 0.64073 47.0316 0.646594 47.1008 0.658321C47.1699 0.664185 47.2304 0.681777 47.2823 0.711095C47.3399 0.734551 47.3946 0.772666 47.4465 0.825439C47.4983 0.87235 47.5559 0.936851 47.6193 1.01894L54.1785 9.52436C54.1554 9.31913 54.1381 9.11976 54.1266 8.92625C54.1209 8.72688 54.118 8.54217 54.118 8.37212V0.64073H56.1661V13.3593H54.9649C54.7805 13.3593 54.6279 13.33 54.5069 13.2713C54.3859 13.2127 54.2678 13.1071 54.1525 12.9547L47.6193 4.48444C47.6366 4.67208 47.6481 4.85972 47.6539 5.04736C47.6654 5.22914 47.6711 5.39626 47.6711 5.54871V13.3593H45.623V0.64073H46.8415Z" fill="black"/>
    <path d="M69.9475 13.3593H67.6142V0.64073H69.9475V13.3593Z" fill="black"/>
    <path d="M89.2872 0.64073V2.523H83.7477V6.28755H88.423V8.17862H83.7477V13.3593H81.4058V0.64073H89.2872Z" fill="black"/>
    <path d="M107.634 0.64073V2.523H102.095V6.05007H106.459V7.87077H102.095V11.4682H107.634V13.3593H99.7529V0.64073H107.634Z" fill="black"/>
    <path d="M124.983 2.95399C124.92 3.08299 124.845 3.17388 124.758 3.22666C124.678 3.27943 124.58 3.30582 124.465 3.30582C124.349 3.30582 124.22 3.26184 124.076 3.17388C123.932 3.08006 123.762 2.97745 123.566 2.86603C123.37 2.75462 123.14 2.65494 122.874 2.56698C122.615 2.47316 122.307 2.42625 121.95 2.42625C121.627 2.42625 121.345 2.4673 121.103 2.54939C120.867 2.62562 120.665 2.7341 120.498 2.87483C120.337 3.01556 120.216 3.18561 120.135 3.38498C120.054 3.57848 120.014 3.79251 120.014 4.02706C120.014 4.32612 120.095 4.57533 120.256 4.77469C120.423 4.97406 120.642 5.14411 120.913 5.28484C121.184 5.42557 121.492 5.55165 121.837 5.66306C122.183 5.77447 122.535 5.89468 122.892 6.02368C123.255 6.14682 123.609 6.29341 123.955 6.46346C124.3 6.62765 124.609 6.83875 124.879 7.09675C125.15 7.34889 125.366 7.65968 125.528 8.02909C125.695 8.39851 125.778 8.84709 125.778 9.37483C125.778 9.94948 125.68 10.4889 125.484 10.9932C125.294 11.4917 125.012 11.9285 124.637 12.3038C124.269 12.6732 123.816 12.9664 123.281 13.1834C122.745 13.3945 122.131 13.5 121.44 13.5C121.042 13.5 120.651 13.459 120.265 13.3769C119.879 13.3006 119.507 13.1892 119.15 13.0426C118.798 12.896 118.467 12.7201 118.156 12.5149C117.851 12.3097 117.577 12.081 117.335 11.8288L118.009 10.6942C118.072 10.6121 118.147 10.5447 118.234 10.4919C118.326 10.4332 118.427 10.4039 118.536 10.4039C118.68 10.4039 118.836 10.4655 119.003 10.5886C119.17 10.7059 119.366 10.8378 119.591 10.9844C119.821 11.131 120.089 11.2659 120.394 11.389C120.705 11.5063 121.077 11.565 121.509 11.565C122.172 11.565 122.684 11.4066 123.047 11.09C123.41 10.7675 123.592 10.3072 123.592 9.70907C123.592 9.37483 123.508 9.10216 123.341 8.89107C123.18 8.67997 122.964 8.50406 122.693 8.36333C122.422 8.21673 122.114 8.09359 121.768 7.99391C121.423 7.89423 121.071 7.78575 120.714 7.66847C120.357 7.55119 120.005 7.41046 119.66 7.24628C119.314 7.08209 119.006 6.86806 118.735 6.60419C118.464 6.34032 118.245 6.01195 118.078 5.61908C117.917 5.22034 117.836 4.73072 117.836 4.1502C117.836 3.68696 117.926 3.23545 118.104 2.79567C118.289 2.35589 118.554 1.96594 118.899 1.62584C119.251 1.28575 119.68 1.01308 120.187 0.807848C120.694 0.602616 121.273 0.5 121.924 0.5C122.661 0.5 123.341 0.617275 123.963 0.851826C124.586 1.08638 125.116 1.41475 125.553 1.83694L124.983 2.95399Z" fill="black"/>
    <path d="M145 0.64073V2.58457H141.241V13.3593H138.916V2.58457H135.14V0.64073H145Z" fill="black"/>
    </svg>
    